<svg width="167" height="167" viewBox="0 0 167 167" fill="none" xmlns="http://www.w3.org/2000/svg">
<g clip-path="url(#clip0)">
<path d="M149.634 95.9081C148.367 95.4583 146.974 96.1198 146.524 97.387C145.833 99.331 144.318 100.819 142.458 101.523V90.585H144.648C145.993 90.585 147.083 89.4946 147.083 88.1498C147.083 86.805 145.993 85.7146 144.648 85.7146H142.458V84.6862C142.458 83.3414 141.367 82.251 140.022 82.251C138.678 82.251 137.587 83.3414 137.587 84.6862V85.7146H135.399C134.054 85.7146 132.964 86.805 132.964 88.1498C132.964 89.4946 134.054 90.585 135.399 90.585H137.587V101.522C135.728 100.818 134.214 99.3303 133.524 97.3873C133.073 96.1201 131.681 95.458 130.413 95.9085C129.146 96.3589 128.484 97.7513 128.934 99.0188C130.598 103.699 135.055 106.844 140.024 106.844C144.993 106.843 149.449 103.699 151.113 99.0185C151.563 97.751 150.901 96.3586 149.634 95.9081Z" fill="#F6B91B"/>
<path d="M218.248 114.973C224.598 107.679 225.449 96.938 220.315 88.8525C218.264 85.6224 215.446 83.1243 212.167 81.6275C212.133 81.6121 212.099 81.5975 212.065 81.5838L147.297 55.5197C145.086 54.5187 142.754 53.9939 140.365 53.9583C140.295 53.9541 140.226 53.9531 140.154 53.9544C140.06 53.9534 140.013 53.9544 139.95 53.9583C137.56 53.9939 135.229 54.5187 133.018 55.5197L97.0464 69.9952C95.7985 70.4972 95.1944 71.9157 95.6964 73.1633C96.1983 74.4109 97.6169 75.016 98.8645 74.5133L134.885 60.0179C134.92 60.0039 134.954 59.9896 134.987 59.9742C136.627 59.226 138.353 58.8401 140.117 58.8271C140.144 58.8267 140.171 58.8267 140.197 58.8271C141.962 58.8398 143.688 59.226 145.327 59.9742C145.361 59.9896 145.395 60.0039 145.429 60.0179L210.193 86.08C212.592 87.1867 214.67 89.0472 216.203 91.4625C220.127 97.6418 219.442 106.184 214.575 111.774L203.031 125.034H77.2836L65.7398 111.774C60.873 106.184 60.1883 97.6418 64.1115 91.4625C65.6448 89.0472 67.7226 87.1871 70.1219 86.08L85.2432 79.995C86.4911 79.493 87.0952 78.0745 86.5936 76.8269C86.0913 75.5789 84.6727 74.9742 83.4251 75.4768L68.25 81.5834C68.2157 81.5971 68.1815 81.6118 68.1479 81.6271C64.8679 83.1239 62.0504 85.6224 59.9998 88.8522C54.8662 96.9373 55.7158 107.678 62.0664 114.973L73.7832 128.431V138.895L70.5984 145.369C70.5929 145.379 70.5863 145.389 70.5808 145.4L67.7796 151.095C66.8637 152.956 67.1782 155.147 68.5442 156.672C68.6355 156.774 68.7317 156.873 68.8322 156.969C71.7169 159.712 78.2628 164.991 89.6941 169.519C97.1883 172.487 105.052 174.464 113.01 175.696C117.435 176.381 121.894 176.835 126.364 177.096C150.588 178.512 176.9 177.311 198.835 165.671C203.316 163.292 207.679 160.477 211.369 156.969C211.469 156.873 211.565 156.775 211.656 156.672C213.023 155.148 213.337 152.957 212.422 151.095L209.62 145.401C209.615 145.391 209.61 145.382 209.605 145.373L206.418 138.896V128.562L218.248 114.973ZM78.6536 129.905H201.548V136.745H78.6536V129.905ZM206.486 150.067L208.05 153.246C208.082 153.311 208.067 153.387 208.012 153.439C204.096 157.164 199.361 160.051 194.535 162.427C184.876 167.181 174.276 169.877 163.638 171.28C147.985 173.346 131.16 173.33 115.53 171.14C100.494 169.032 83.4832 164.276 72.1885 153.439C72.1337 153.387 72.119 153.311 72.1507 153.246L73.7153 150.066C85.391 157.671 105.204 165.831 136.47 165.831C144.345 165.831 148.289 165.792 156.134 165C157.473 164.865 159.634 163.5 161.134 162C161.634 160.833 164.47 159.863 163.134 160C156.992 160.62 146.907 161.059 140.206 160.923C140.173 160.922 140.14 160.922 140.107 160.923C107.412 161.588 87.3212 153.258 75.8821 145.661L77.813 141.736H202.387L204.319 145.662C195.919 151.25 185.72 155.376 173.965 157.935C172.651 158.221 171.817 159.519 172.103 160.833C172.389 162.147 173.689 162.981 175.001 162.695C187.107 160.058 197.684 155.815 206.486 150.067Z" fill="#FEC93F"/>
<path d="M140.023 70.7546C126.759 70.7546 115.969 81.5454 115.969 94.8092C115.969 108.073 126.759 118.864 140.023 118.864C153.287 118.864 164.078 108.073 164.078 94.8092C164.078 81.5454 153.287 70.7546 140.023 70.7546ZM140.023 113.993C129.445 113.993 120.839 105.388 120.839 94.8092C120.839 84.2311 129.445 75.625 140.023 75.625C150.602 75.625 159.207 84.2308 159.207 94.8092C159.207 105.388 150.601 113.993 140.023 113.993Z" fill="#FEC93F"/>
</g>
<defs>
<clipPath id="clip0">
<rect width="167" height="167" fill="white"/>
</clipPath>
</defs>
</svg>
