<svg width="96" height="120" viewBox="0 0 96 120" fill="none" xmlns="http://www.w3.org/2000/svg">
<path d="M134.843 126.313C133.887 125.157 132.222 125.035 131.123 126.04C128.311 128.611 125.71 131.277 122.021 132.35C117.92 133.542 114.022 132.601 110.311 130.649L124.043 82.0517C124.384 80.8428 123.907 79.5434 122.882 78.8897L110.177 70.7927V47.1484C110.177 45.6169 108.997 44.3749 107.54 44.3749H102.267V36.0546C102.267 34.5231 101.087 33.2812 99.6303 33.2812H91.3247V24.9609C91.3247 23.4294 90.1442 22.1875 88.688 22.1875H75.8999V2.77343C75.8999 1.24194 74.7194 0 73.2632 0H62.7163C61.2601 0 60.0796 1.24194 60.0796 2.77343V22.1875H47.2916C45.8353 22.1875 44.6548 23.4294 44.6548 24.9609V33.2812H36.3492C34.8929 33.2812 33.7125 34.5231 33.7125 36.0546V44.3749H28.4391C26.9828 44.3749 25.8023 45.6169 25.8023 47.1484V70.7927L13.0981 78.8895C12.0724 79.5432 11.5955 80.8425 11.9372 82.0515C11.9372 82.0515 25.6352 130.528 25.641 130.549C25.4071 129.722 21.1878 129.177 20.4419 129.075C12.7646 128.03 6.92663 132.076 1.39639 137.133C0.297405 138.139 0.18139 139.89 1.13667 141.046C2.04871 142.149 3.74596 142.335 4.85628 141.319C10.5537 136.11 16.977 132.138 24.5154 136.103C31.335 139.69 38.394 141.228 45.497 137.296C51.2245 134.125 56.7516 131.387 63.1445 134.588L69.7171 137.88C75.3401 140.697 81.76 140.632 87.3301 137.702C90.7625 135.897 94.2512 133.495 98.172 133.211C102.015 132.934 105.729 134.439 109.106 136.216C113.567 138.563 118.789 139.031 123.58 137.595C127.992 136.272 131.203 133.316 134.583 130.225C135.682 129.22 135.798 127.469 134.843 126.313ZM104.904 49.9218V67.4319L77.4297 49.9218H104.904ZM65.353 5.54687H70.6265V22.1875H65.353V5.54687ZM49.9283 27.7343H86.0512V33.2812H49.9283V27.7343ZM31.0758 49.9218H58.5498L31.0758 67.4319V49.9218ZM65.353 129.551C65.3536 129.058 61.5944 128.149 61.1027 128.037C56.5137 126.992 51.5873 127.656 47.4271 129.959C44.4086 131.63 41.4963 133.58 38.0441 134.047C38.0377 134.048 38.0314 134.049 38.0251 134.05C36.008 134.308 33.9435 134.151 31.9912 133.553L17.5718 82.524L65.353 52.0718C65.353 52.0718 65.353 129.548 65.353 129.551ZM38.9859 44.3749V38.8281H96.9936V44.3749H38.9859ZM105.437 128.426C105.466 127.568 98.0438 127.576 97.5465 127.631C92.9697 128.14 89.0104 130.617 84.9715 132.741C80.2001 135.251 75.2906 134.53 70.6265 132.192V52.0718L118.408 82.524L105.437 128.426Z" fill="#17A4D2"/>
</svg>
