<svg width="152" height="152" viewBox="0 0 152 152" fill="none" xmlns="http://www.w3.org/2000/svg">
<g clip-path="url(#clip0)">
<path d="M169.612 94.4958L151.562 87.3709C154.175 84.0459 156.075 80.2459 157.025 75.9709L163.2 72.8834C165.575 71.6959 167.237 69.3209 167.237 66.4709V63.6209C167.237 59.5834 164.15 56.4959 160.112 56.4959C159.637 56.4959 158.925 56.4959 158.45 56.7334H157.5V50.5584L159.162 37.0209C159.638 33.2209 156.787 29.6584 152.987 29.1834C152.75 29.1834 152.513 29.1834 152.037 29.1834H149.662L148.713 25.1459C148 21.5834 145.15 19.4459 141.825 19.4459H116.175C112.85 19.4459 110 21.5834 109.288 24.9084L108.1 28.9459H105.725C101.688 28.9459 98.6 32.0334 98.6 36.0709V37.0209L100.262 50.5584V56.7334L99.55 56.4959C95.75 55.5459 91.95 57.9209 91 61.7209V63.3834V66.2334C91 68.8459 92.425 71.4584 95.0375 72.6459L101.212 75.7334C102.162 80.0084 103.825 83.8084 106.675 87.1334L88.625 94.2584C78.4125 98.2959 72 108.033 72 118.721V161.946H186V118.721C186 108.033 179.587 98.2959 169.612 94.4958ZM157.5 61.7209L159.4 61.2459C160.588 61.0084 162.012 61.7209 162.25 62.9084V63.3834V66.2334C162.25 67.1834 161.775 67.8959 160.825 68.3709L157.5 70.2709V61.7209ZM100.5 70.2709L97.175 68.6084C96.4625 68.1334 95.75 67.4209 95.75 66.4709V63.6209C95.75 62.1959 96.7 61.2459 98.125 61.2459H98.6L100.5 61.7209V70.2709ZM167.713 98.7709C169.375 99.4834 170.8 100.433 172.463 101.383L142.062 111.596L139.45 107.796L166.287 98.2959L167.713 98.7709ZM124.962 105.183C124.487 104.233 124.25 103.521 124.25 102.571C124.25 99.9584 126.388 97.8209 129 97.8209C131.612 97.8209 133.75 99.9584 133.75 102.571C133.75 103.521 133.513 104.233 133.038 104.946C131.613 107.083 128.763 107.796 126.388 106.371C125.912 106.133 125.438 105.658 124.962 105.183ZM125.913 111.596L120.45 129.408C120.212 130.358 119.263 131.071 118.075 131.071H112.375V125.371C112.375 124.896 112.613 124.421 112.85 123.946L123.062 109.696C123.775 110.646 124.963 111.121 125.913 111.596ZM134.938 109.933L145.15 124.183C145.387 124.658 145.625 125.133 145.625 125.608V131.071H139.688C138.738 131.071 137.787 130.358 137.312 129.408L131.85 111.596C133.038 111.121 134.225 110.646 134.938 109.933ZM159.638 95.4459L138.5 103.046C138.5 102.808 138.5 102.571 138.5 102.571C138.5 100.433 137.787 98.2959 136.362 96.6334C137.55 96.3959 138.738 95.9209 139.688 95.4459L142.062 94.2584C144.2 93.3084 146.1 92.1209 147.763 90.6959L159.638 95.4459ZM113.8 26.0959C114.038 25.1459 114.987 24.1959 116.175 24.1959H142.062C143.25 24.1959 144.2 24.9084 144.438 26.0959L144.912 28.9459H113.087L113.8 26.0959ZM103.587 36.3084C103.35 35.1209 104.3 33.9334 105.725 33.6959H105.962H152.275C153.7 33.6959 154.65 34.6459 154.65 36.0709V36.3084L153.225 47.4709L138.025 44.6209C132.087 43.4334 126.15 43.4334 120.212 44.6209L105.013 47.4709L103.587 36.3084ZM105.25 70.5084V52.2209L120.925 49.3709C126.15 48.4209 131.85 48.4209 137.075 49.3709L152.75 52.2209V70.5084C152.75 78.8209 147.763 86.4209 140.162 89.9834L137.787 91.1709C132.088 93.7834 125.675 93.7834 120.212 91.1709L117.837 89.9834C110.237 86.6584 105.25 79.0584 105.25 70.5084ZM110 90.9333C111.662 92.3584 113.8 93.5459 115.7 94.4958L118.075 95.6833C119.263 96.1583 120.212 96.6334 121.4 96.8708C120.212 98.2959 119.5 100.433 119.5 102.571V103.046L98.3625 95.4459L110 90.9333ZM90.2875 98.7709L91.7125 98.0583L118.55 107.558L115.938 111.358L85.5375 101.146C86.9625 100.433 88.625 99.4834 90.2875 98.7709ZM181.25 157.196H162.25V131.071H157.5V157.196H100.5V131.071H95.75V157.196H76.75V118.721C76.75 113.733 78.4125 108.983 81.7375 105.183L113.087 115.633L109.05 121.333C108.1 122.521 107.625 123.946 107.625 125.371V135.821H118.312C121.4 135.821 124.25 133.683 125.2 130.833L129 118.008L132.8 130.833C133.75 133.921 136.363 135.821 139.688 135.821H150.375V125.371C150.375 123.946 149.9 122.521 148.95 121.333L144.912 115.633L176.263 105.183C179.35 108.983 181.25 113.733 181.25 118.721V157.196Z" fill="#767676"/>
</g>
<defs>
<clipPath id="clip0">
<rect width="152" height="152" fill="white"/>
</clipPath>
</defs>
</svg>
