<svg width="139" height="139" viewBox="0 0 139 139" fill="none" xmlns="http://www.w3.org/2000/svg">
<g clip-path="url(#clip0)">
<path d="M127.042 114.837L153.384 88.4962C157.373 84.5064 157.373 78.0147 153.384 74.0249C151.977 72.6181 150.259 71.7097 148.449 71.2952C149.07 69.9611 149.398 68.497 149.398 66.9818C149.398 64.2485 148.334 61.6789 146.401 59.7465C144.885 58.2305 142.977 57.2516 140.906 56.8989C142.072 53.3463 141.248 49.2775 138.428 46.4579C136.877 44.9077 134.949 43.9629 132.937 43.6176C133.274 42.5944 133.452 41.5139 133.452 40.4051C133.452 37.6718 132.387 35.1022 130.455 33.1698C128.522 31.2374 125.952 30.1729 123.219 30.1729C121.484 30.1729 119.815 30.6035 118.332 31.4119L118.07 31.1304C114.665 27.4713 109.846 25.373 104.848 25.373H83.5257C82.0262 25.373 80.8103 26.589 80.8103 28.0884V31.6492C80.8103 33.0742 81.0513 34.4615 81.5123 35.766C80.2841 35.2559 78.9552 34.9879 77.5853 34.9879C74.852 34.9879 72.2824 36.0524 70.3497 37.9849C67.5284 40.8061 66.705 44.8778 67.8738 48.4316C65.8596 48.7761 63.9286 49.7214 62.3768 51.2729C60.4443 53.2056 59.3798 55.7752 59.3798 58.5083C59.3798 59.6148 59.5571 60.6937 59.8929 61.7148C57.8242 62.0685 55.9179 63.0469 54.4035 64.5615C51.2877 67.6774 50.6055 72.3198 52.3568 76.104C50.5023 76.5278 48.799 77.4617 47.4204 78.84C43.4309 82.8295 43.4309 89.3212 47.4204 93.3109L52.8376 98.7279L14.5 138.5C13.4396 139.56 14.8452 138.439 15.9056 139.5C16.4358 140.03 11.9112 146.468 19.5 139C20.1947 139 20.9695 139.03 21.4998 138.5L56.9348 102.31C58.4592 103.18 60.1891 103.646 61.9921 103.646C64.7251 103.646 67.2947 102.581 69.2274 100.648C71.327 98.5489 72.3201 95.7562 72.2096 93.0001C72.3473 93.0058 72.4849 93.0098 72.6226 93.0098C75.2424 93.0096 77.8636 92.0121 79.8579 90.0178C81.7903 88.0851 82.8548 85.5155 82.8548 82.7825C82.8548 82.6443 82.8502 82.5069 82.8448 82.3696C82.9808 82.375 83.1168 82.3793 83.2531 82.3793C85.8732 82.3793 88.4938 81.3819 90.4884 79.3873C92.4208 77.4546 93.4853 74.885 93.4853 72.152C93.4853 72.0138 93.4807 71.8764 93.4753 71.739C93.6113 71.7445 93.7473 71.7488 93.8836 71.7488C96.504 71.7488 99.1243 70.7514 101.119 68.7568C104.868 65.0081 105.093 59.051 101.798 55.0354L119.823 37.0105C120.73 36.1032 121.935 35.6039 123.218 35.6039C124.501 35.6039 125.706 36.1032 126.613 37.0105C127.52 37.9175 128.019 39.1229 128.019 40.4057C128.019 41.6882 127.52 42.8941 126.613 43.8009L123.955 46.4584L114.313 56.101C113.252 57.1614 113.252 58.8807 114.313 59.9414C114.843 60.4714 115.538 60.7369 116.233 60.7369C116.927 60.7369 117.622 60.4716 118.153 59.9414L127.795 50.2988C129.667 48.4267 132.713 48.4264 134.586 50.2986C136.458 52.171 136.458 55.2171 134.586 57.0895L131.928 59.7473L124.943 66.7321C123.883 67.7925 123.883 69.5118 124.943 70.5725C125.474 71.1024 126.169 71.3679 126.863 71.3679C127.558 71.3679 128.253 71.1027 128.783 70.5725L135.768 63.5877C136.675 62.6804 137.881 62.1812 139.163 62.1812C140.446 62.1812 141.652 62.6804 142.559 63.5877C143.466 64.4948 143.965 65.7001 143.965 66.9829C143.965 68.2654 143.466 69.4713 142.558 70.3781L138.91 74.026L135.574 77.3628C134.513 78.4233 134.513 80.1426 135.574 81.2033C136.104 81.7332 136.799 81.9987 137.493 81.9987C138.188 81.9987 138.883 81.7335 139.413 81.2033L142.753 77.864C144.625 75.9948 147.67 75.9951 149.541 77.8665C151.413 79.7386 151.413 82.7849 149.541 84.6574L123.199 110.999C116.585 117.613 107.794 121.443 98.4459 121.782C97.7588 121.807 97.1061 122.092 96.6207 122.579L72.287 147.003C71.2285 148.066 71.2315 149.785 72.2941 150.843C72.8237 151.371 73.5171 151.635 74.2105 151.635C74.9068 151.635 75.6037 151.369 76.1339 150.836L94.0321 132.872C98.5784 135.789 103.925 137.175 109.361 136.816L123.369 150.824C123.9 151.354 124.595 151.62 125.289 151.62C125.984 151.62 126.679 151.355 127.209 150.824C128.27 149.764 128.27 148.045 127.209 146.984L112.316 132.089C111.752 131.525 110.968 131.237 110.174 131.302L109.313 131.373C105.339 131.699 101.411 130.828 97.9819 128.906L99.727 127.155C110.048 126.518 119.71 122.17 127.042 114.837ZM65.3875 96.8085C64.4805 97.7158 63.2746 98.215 61.9923 98.215C60.7096 98.215 59.5039 97.7158 58.5971 96.8085L51.26 89.4716C49.3879 87.5994 49.3879 84.5531 51.26 82.6807C52.167 81.7734 53.373 81.2741 54.6555 81.2741C55.938 81.2741 57.1439 81.7734 58.0506 82.6807L65.3878 90.0175C67.2597 91.8897 67.2597 94.936 65.3875 96.8085ZM76.0186 86.1774C74.1461 88.0496 71.0993 88.0496 69.2277 86.1774L61.8905 78.8403L58.2423 75.1921C56.3702 73.3199 56.3702 70.2736 58.2423 68.4014C59.1493 67.4941 60.3553 66.9949 61.6375 66.9949C62.9203 66.9949 64.1259 67.4941 65.0327 68.4014L76.0178 79.3865C76.9251 80.2938 77.4246 81.4995 77.4246 82.7819C77.4246 84.0644 76.9253 85.2704 76.0186 86.1774ZM86.6491 75.5466C84.7766 77.4185 81.7301 77.4188 79.8582 75.5466L66.2153 61.9037C65.3082 60.9967 64.809 59.7913 64.809 58.5085C64.809 57.226 65.3082 56.0201 66.2155 55.1133C67.1516 54.1773 68.3814 53.7092 69.6107 53.7092C70.8395 53.7092 72.0679 54.1767 73.0037 55.1112L79.2218 61.3293L86.6485 68.756C87.5553 69.663 88.0548 70.8684 88.0548 72.1512C88.0554 73.4339 87.5561 74.6399 86.6491 75.5466ZM97.2799 64.9158C95.4077 66.788 92.3614 66.788 90.4892 64.9158L76.8463 51.2729C76.8463 51.2729 76.8433 51.2702 76.8417 51.2686L74.1885 48.6154C72.3163 46.7429 72.3163 43.6969 74.1885 41.8245C75.1246 40.8881 76.3544 40.4201 77.584 40.4201C78.8135 40.4201 80.0433 40.8881 80.9791 41.8245L97.2793 58.1246C98.1866 59.0317 98.6859 60.2373 98.6859 61.5198C98.6861 62.8029 98.1872 64.0091 97.2799 64.9158ZM97.9939 51.1592L90.5356 43.701C91.3813 43.8815 92.2509 43.9773 93.1359 43.9771C93.1557 43.9771 93.1758 43.9771 93.1959 43.9771L100.648 43.942C102.147 43.935 103.357 42.7136 103.35 41.2139C103.343 39.7186 102.129 38.5113 100.635 38.5113C100.631 38.5113 100.626 38.5113 100.622 38.5113L93.1704 38.5463C93.159 38.5463 93.1481 38.5463 93.1367 38.5463C91.3007 38.5463 89.5738 37.8336 88.2717 36.5378C86.9615 35.2336 86.2402 33.4978 86.2402 31.649V30.8035H104.847C108.343 30.8035 111.713 32.2709 114.095 34.8299L114.205 34.9486L97.9939 51.1592Z" fill="#D66471"/>
</g>
<defs>
<clipPath id="clip0">
<rect width="139" height="139" fill="white"/>
</clipPath>
</defs>
</svg>
